<?xml version="1.0" standalone="no"?>
<!DOCTYPE svg PUBLIC "-//W3C//DTD SVG 20010904//EN"
 "http://www.w3.org/TR/2001/REC-SVG-20010904/DTD/svg10.dtd">
<svg version="1.0" xmlns="http://www.w3.org/2000/svg"
 width="2728.000000pt" height="2717.000000pt" viewBox="0 0 2728.000000 2717.000000"
 preserveAspectRatio="xMidYMid meet">

<g transform="translate(0.000000,2717.000000) scale(0.100000,-0.100000)"
fill="#FFFFFF" stroke="none">
<path d="M10265 27145 c-33 -83 -49 -129 -75 -228 -64 -243 -90 -412 -140
-920 -52 -535 -88 -734 -176 -987 -45 -130 -55 -160 -94 -285 -101 -322 -251
-621 -451 -900 -223 -311 -574 -651 -749 -724 -240 -100 -440 -268 -848 -711
-140 -152 -323 -327 -368 -353 -9 -5 -57 -13 -109 -17 -153 -15 -255 -63 -255
-120 0 -50 98 -85 210 -76 82 6 113 15 270 74 175 66 230 66 230 -3 0 -43 -28
-105 -114 -260 -37 -66 -78 -144 -91 -175 -25 -59 -42 -130 -30 -130 3 0 30
12 59 26 81 39 193 141 381 344 164 177 253 260 280 260 16 0 30 -18 38 -50 5
-17 -5 -53 -28 -111 -47 -117 -68 -222 -63 -323 8 -186 92 -229 209 -106 57
59 84 109 214 385 69 147 173 306 223 340 105 71 168 -23 191 -288 10 -122 27
-159 83 -188 55 -28 157 -25 333 11 81 17 177 30 212 30 55 0 68 -4 88 -25 31
-30 34 -101 8 -181 -15 -48 -38 -74 -326 -356 -362 -354 -496 -480 -667 -631
-485 -426 -966 -716 -1381 -832 -115 -33 -217 -79 -311 -142 -91 -60 -247
-209 -342 -327 -128 -158 -358 -479 -382 -534 -90 -200 -15 -256 201 -148 49
24 119 68 153 96 l64 51 -37 -65 c-81 -145 -120 -301 -92 -369 43 -103 160
-30 358 224 156 201 274 292 377 292 38 0 49 -5 74 -31 24 -28 28 -40 28 -93
0 -78 -37 -189 -99 -299 -86 -151 -124 -269 -98 -304 14 -19 16 -19 72 9 71
34 244 203 335 325 35 47 80 123 102 169 79 172 172 281 240 281 38 0 83 -44
97 -96 16 -57 13 -187 -5 -257 -16 -62 -52 -141 -85 -189 -34 -48 -20 -40 72
39 216 186 334 265 465 309 70 23 90 26 190 22 62 -1 115 -6 119 -10 4 -3 -14
-41 -38 -85 -53 -94 -85 -165 -171 -385 -103 -263 -181 -412 -273 -515 -50
-56 -342 -206 -825 -422 -463 -207 -687 -322 -909 -466 l-102 -66 -81 20
c-169 43 -361 53 -489 26 -84 -17 -181 -68 -214 -111 -28 -38 -53 -112 -53
-159 0 -30 5 -34 74 -69 129 -63 156 -124 93 -208 -18 -24 -89 -88 -157 -143
-153 -122 -232 -200 -264 -263 -14 -26 -54 -87 -90 -137 -162 -225 -271 -468
-252 -567 8 -46 36 -69 88 -75 45 -5 128 12 128 26 0 5 35 62 79 127 158 239
266 300 433 243 l62 -21 21 29 c106 147 257 322 324 375 118 96 139 3 59 -265
-67 -228 -86 -360 -54 -386 41 -34 137 74 226 254 53 107 100 247 100 297 0
25 55 154 86 201 26 40 48 47 59 20 4 -10 11 -139 16 -288 8 -259 20 -364 44
-368 18 -3 52 85 119 312 67 225 103 318 132 342 14 11 19 10 34 -9 18 -22 40
-121 40 -179 0 -35 69 -145 106 -170 38 -25 72 -10 95 42 11 24 42 132 68 240
54 214 93 303 150 342 18 12 46 40 62 62 33 46 81 75 109 66 29 -9 80 -73 108
-135 14 -30 52 -129 83 -219 58 -163 84 -209 112 -198 8 3 29 48 46 101 92
287 321 567 466 570 53 1 89 -23 129 -88 l29 -47 -46 -67 c-26 -37 -97 -125
-158 -197 -167 -195 -236 -290 -290 -400 -53 -109 -79 -205 -79 -300 l0 -61
-197 -91 c-109 -51 -350 -162 -536 -247 -373 -172 -824 -397 -1016 -506 -282
-161 -583 -363 -703 -470 -106 -94 -424 -455 -594 -675 -265 -341 -484 -721
-584 -1011 l-19 -54 29 -15 c40 -20 65 -19 111 7 51 28 105 99 219 283 168
272 243 349 349 362 41 5 52 2 70 -16 41 -41 26 -115 -74 -382 -74 -196 -105
-303 -105 -365 0 -77 8 -80 55 -20 165 213 342 563 446 884 31 96 38 107 97
166 72 73 111 94 149 80 65 -23 84 -151 71 -462 -15 -340 -15 -379 3 -397 15
-15 19 -14 53 15 112 98 296 511 330 740 12 83 18 99 62 162 73 107 169 169
263 170 61 0 87 -8 128 -38 45 -34 67 -98 61 -182 -7 -92 -67 -222 -129 -278
-123 -110 -197 -187 -364 -374 -205 -232 -315 -338 -426 -417 -142 -99 -193
-159 -425 -508 -95 -143 -194 -284 -221 -313 l-48 -53 -71 -3 c-60 -1 -83 -8
-145 -39 -269 -134 -484 -498 -360 -609 17 -15 38 -28 46 -28 18 0 15 -18 -27
-140 -47 -137 -185 -406 -354 -690 -170 -287 -293 -518 -342 -645 -17 -44 -46
-106 -66 -139 -42 -69 -71 -155 -86 -249 -29 -187 50 -289 163 -210 63 44 139
148 182 248 47 113 102 222 114 230 14 8 26 -19 46 -105 27 -117 75 -209 141
-269 30 -28 67 -54 80 -57 32 -8 87 28 174 115 119 119 206 269 345 595 38 87
87 195 110 240 89 174 189 353 221 397 109 149 121 6 42 -466 -47 -280 -34
-410 43 -454 55 -31 134 25 192 137 54 103 59 130 66 367 7 201 10 226 34 293
71 202 222 366 536 582 68 47 151 109 185 139 34 29 76 61 95 70 32 15 34 15
52 -8 28 -35 24 -106 -21 -376 -25 -147 -40 -269 -40 -319 l1 -81 25 30 c95
114 180 275 334 630 171 396 259 556 356 651 53 51 76 58 108 33 34 -27 45
-85 62 -318 14 -212 25 -288 50 -347 24 -58 38 -54 131 37 158 157 260 310
459 691 64 123 141 264 169 314 29 50 58 108 65 129 16 49 66 104 115 126 50
23 158 25 235 4 189 -50 350 -205 350 -334 0 -80 -6 -88 -94 -133 -63 -32
-101 -62 -171 -132 -77 -77 -99 -108 -147 -201 -31 -60 -75 -155 -98 -210 -23
-55 -62 -138 -85 -185 -23 -47 -56 -119 -72 -160 -85 -212 -215 -372 -569
-697 -211 -194 -231 -210 -324 -255 -82 -40 -114 -62 -178 -126 -96 -95 -150
-177 -272 -412 -57 -110 -109 -197 -130 -218 -63 -61 -221 -159 -472 -291
-459 -241 -564 -333 -700 -609 -122 -248 -258 -439 -612 -857 -329 -388 -447
-551 -557 -772 -35 -70 -65 -130 -66 -132 -2 -2 -52 21 -111 52 -338 176 -672
238 -1182 222 -313 -10 -405 -9 -625 11 -217 20 -469 15 -559 -10 -82 -23
-174 -68 -220 -108 l-39 -34 -6 -1599 c-4 -981 -3 -1632 3 -1682 6 -60 5 -140
-8 -300 -18 -242 -21 -435 -7 -509 27 -143 90 -234 197 -285 l65 -30 747 -2
c800 -1 861 2 1097 53 158 35 358 106 533 190 619 298 1031 912 1148 1715 27
183 25 562 -5 754 -51 334 -166 662 -319 914 l-42 69 105 111 c140 150 246
287 427 557 240 358 356 516 424 580 164 153 239 143 214 -28 -15 -100 -116
-404 -175 -524 -66 -136 -87 -227 -89 -378 -1 -142 14 -190 58 -190 50 0 108
101 201 350 60 161 81 204 96 194 5 -3 9 -89 9 -192 0 -199 12 -334 35 -389
12 -29 18 -33 53 -33 69 0 114 53 146 175 9 33 32 182 51 330 31 247 61 390
87 422 16 20 75 27 108 13 17 -7 42 -26 56 -43 51 -61 71 -135 114 -420 30
-204 56 -315 82 -350 12 -16 16 -14 49 30 101 138 148 265 228 623 51 227 71
293 128 440 54 138 69 168 96 198 59 64 106 -15 162 -278 15 -69 43 -190 62
-270 35 -143 36 -147 30 -300 -7 -177 -23 -294 -73 -535 -19 -93 -57 -276 -84
-405 -57 -278 -80 -453 -80 -612 l0 -116 -87 -7 c-47 -4 -215 -4 -372 1 -666
21 -973 5 -1170 -59 -34 -12 -36 -15 -48 -77 -48 -256 -54 -471 -43 -1405 5
-408 4 -423 -18 -522 -34 -156 -26 -268 29 -374 51 -100 173 -179 316 -204
105 -19 148 -18 320 6 226 31 259 46 302 138 29 62 30 101 20 511 -4 193 -3
199 46 314 7 17 5 18 -21 12 -55 -14 -113 -56 -140 -101 -37 -64 -51 -116 -74
-288 -25 -179 -43 -244 -83 -292 -44 -54 -81 -69 -167 -69 -144 1 -244 80
-296 234 -22 63 -23 151 -10 755 5 243 3 390 -5 480 -39 431 6 618 175 735 41
27 42 27 306 40 331 17 830 17 1015 1 298 -26 590 -81 695 -133 179 -87 310
-306 310 -518 -1 -211 -98 -375 -286 -483 -45 -25 -102 -66 -127 -91 -171
-171 -121 -434 132 -699 43 -45 86 -97 96 -116 23 -46 24 -119 1 -153 -60 -92
-277 -101 -448 -19 -88 42 -129 82 -186 182 -67 119 -129 198 -243 311 -208
206 -408 308 -515 263 l-39 -17 60 -27 c85 -39 176 -112 246 -195 33 -39 126
-170 206 -291 264 -397 406 -502 653 -480 116 10 111 10 238 -4 239 -25 431
32 463 139 35 117 -64 248 -330 439 -85 61 -173 158 -207 228 -41 82 -41 174
0 258 38 77 174 214 276 275 94 57 148 112 194 199 92 175 87 376 -14 570
-120 231 -377 420 -627 463 -40 6 -73 15 -73 20 0 4 15 76 34 160 19 84 67
317 106 518 39 201 88 444 110 540 21 96 55 252 75 345 40 188 83 327 103 333
17 5 16 -179 -3 -333 -31 -256 -37 -360 -25 -476 16 -163 49 -224 91 -168 37
49 85 249 108 449 35 308 246 575 301 381 6 -23 8 -131 4 -296 -6 -257 0 -326
26 -310 42 26 126 404 155 701 21 206 42 257 88 206 25 -27 78 -150 137 -312
67 -187 110 -290 120 -290 13 0 92 216 134 374 36 129 67 280 126 596 84 457
159 743 243 930 30 66 28 71 56 -140 66 -486 97 -971 131 -2025 10 -341 22
-663 25 -715 3 -52 6 -141 7 -197 0 -89 -3 -107 -23 -144 -53 -96 -157 -113
-505 -84 -117 10 -244 15 -289 12 -81 -6 -196 -36 -227 -60 -22 -17 -34 -171
-48 -602 -16 -494 -27 -1867 -16 -1883 16 -22 103 -62 184 -84 68 -18 118 -22
437 -28 319 -6 367 -9 420 -26 58 -19 60 -21 59 -55 0 -18 -8 -82 -17 -140
-37 -231 -8 -370 95 -466 84 -77 179 -90 483 -66 171 13 246 35 304 89 l36 32
6 189 c5 162 9 196 28 245 61 158 214 239 480 255 85 6 97 9 126 34 50 44 79
120 79 209 0 63 -4 85 -30 140 -42 89 -84 134 -158 170 -82 41 -156 48 -241
25 -63 -17 -65 -16 -128 4 -74 25 -151 71 -166 100 -28 52 -1 114 77 179 26
22 126 91 222 155 96 63 185 125 196 138 34 38 64 132 64 203 0 121 -56 161
-289 207 -158 32 -238 64 -267 107 -25 38 -25 178 0 216 39 60 89 77 303 106
219 29 285 57 324 136 18 38 21 57 16 112 -2 37 -8 76 -11 87 -4 11 12 -16 35
-60 68 -131 175 -382 379 -890 210 -524 305 -745 413 -960 76 -154 183 -346
229 -412 l29 -43 262 0 c188 0 281 4 329 15 181 38 280 128 324 294 10 36 30
87 46 112 41 68 81 160 149 342 126 340 217 481 353 546 104 50 98 51 154 -31
70 -104 147 -262 237 -488 42 -107 104 -251 137 -320 33 -69 67 -147 75 -175
47 -156 152 -255 319 -299 166 -45 483 -19 632 52 44 21 111 127 241 382 123
242 189 394 411 946 202 502 271 664 364 853 96 195 79 254 -104 364 -123 73
-146 93 -171 143 -33 68 -24 133 35 248 45 89 48 102 106 415 33 178 74 379
90 447 28 116 55 192 66 181 3 -3 -3 -83 -12 -178 -18 -183 -26 -671 -11 -722
11 -40 25 -33 51 26 29 66 51 158 66 270 26 209 158 537 216 537 8 0 23 -17
32 -38 14 -31 17 -74 17 -277 1 -231 6 -285 26 -285 35 0 91 277 109 549 11
167 23 229 46 238 39 15 79 -65 169 -337 l62 -185 32 84 c79 204 121 395 215
976 25 154 57 327 71 385 33 137 86 310 95 310 9 0 47 -232 65 -400 27 -261
50 -770 61 -1395 3 -187 11 -341 25 -465 38 -335 15 -460 -96 -518 -36 -18
-151 -20 -210 -3 -22 6 -124 16 -227 22 -372 20 -550 -27 -619 -162 -28 -57
-34 -149 -15 -232 20 -84 22 -460 5 -1043 -8 -285 -8 -454 0 -621 11 -229 34
-460 50 -499 7 -16 29 -25 107 -42 186 -42 219 -46 379 -46 138 -1 170 2 230
21 90 28 144 69 180 135 28 51 29 61 39 248 8 168 7 218 -10 370 -24 225 -25
387 -1 457 29 84 111 143 199 143 26 0 26 -1 35 -98 15 -175 8 -669 -15 -1027
-11 -187 -26 -438 -32 -558 l-11 -217 23 -43 c63 -113 264 -172 457 -133 137
28 221 79 264 161 34 65 35 252 2 570 -32 305 -31 433 2 466 19 19 22 20 50 6
40 -21 89 -77 161 -184 178 -265 416 -351 893 -323 96 5 244 13 330 16 l156 7
36 66 c47 86 74 190 89 329 9 92 8 159 -7 376 -13 197 -16 306 -10 428 9 190
11 434 4 783 -4 228 -2 253 14 278 26 40 54 34 109 -24 l48 -51 0 41 c0 138
-53 497 -116 786 -52 242 -245 1004 -318 1257 -35 122 -71 259 -79 303 -38
199 -31 358 23 514 88 252 21 661 -176 1078 -29 62 -51 113 -49 113 2 0 23
-16 47 -36 23 -20 122 -90 218 -154 298 -199 379 -275 446 -415 43 -89 54
-150 54 -290 0 -177 49 -330 134 -417 58 -60 105 -62 133 -7 19 36 15 162 -8
269 -11 52 -31 149 -45 215 -32 153 -42 302 -21 329 14 19 16 19 40 3 56 -37
204 -304 435 -787 44 -91 98 -188 120 -217 77 -96 161 -125 247 -83 74 35 73
31 76 186 3 101 8 146 18 158 19 23 30 12 114 -114 89 -133 168 -216 232 -246
45 -21 105 -32 105 -19 0 31 -51 224 -85 323 -90 264 -190 457 -505 982 -114
190 -215 360 -224 378 -19 38 -19 38 48 110 76 82 126 92 175 37 41 -47 64
-128 101 -352 38 -231 51 -287 89 -360 38 -77 72 -108 99 -94 38 20 54 94 59
264 6 177 -5 272 -43 382 -30 84 -44 228 -24 240 35 22 173 -192 357 -550 58
-114 118 -243 133 -286 68 -193 201 -278 338 -219 86 37 136 118 149 243 l6
59 40 -77 c69 -131 211 -255 295 -255 37 0 62 34 62 85 0 49 -45 183 -84 249
-13 22 -36 76 -50 119 -32 95 -60 145 -200 362 -223 346 -260 473 -170 591
l36 46 -47 97 c-106 220 -256 405 -572 706 -287 274 -387 377 -426 438 -94
145 -226 227 -480 298 -304 84 -402 123 -483 193 -32 28 -38 40 -45 94 -12 89
-56 193 -164 392 -52 96 -110 209 -127 250 -30 69 -33 84 -33 181 0 100 2 108
30 154 17 27 35 50 40 51 6 2 26 -18 45 -44 19 -25 80 -92 136 -148 103 -103
192 -162 227 -148 42 16 33 108 -25 267 -50 139 -56 174 -33 183 29 11 74 -21
231 -162 178 -161 227 -196 269 -192 29 3 30 5 33 53 1 28 -6 81 -17 120 -11
38 -18 71 -17 73 10 9 143 -112 381 -348 284 -281 385 -364 525 -435 75 -38
189 -80 196 -72 7 6 -106 182 -181 282 -156 208 -334 391 -665 684 -90 80
-241 214 -335 298 -169 152 -170 152 -255 178 -659 198 -1027 471 -1175 870
-12 33 -25 72 -29 88 -6 25 -4 27 27 27 58 0 155 -40 424 -177 315 -159 356
-169 256 -61 -70 74 -225 208 -508 438 -331 269 -436 361 -581 505 -305 306
-475 590 -545 913 -15 72 -22 149 -26 300 -7 264 4 278 46 58 37 -192 72 -321
94 -344 22 -21 43 -3 52 46 12 69 75 327 86 355 6 15 17 27 25 27 17 0 29 -43
64 -240 38 -217 98 -390 135 -390 25 0 38 75 55 325 11 159 27 285 40 319 7
18 13 11 39 -46 51 -112 97 -283 165 -615 88 -428 134 -579 225 -728 35 -58
36 -59 38 -30 8 89 27 185 45 223 27 57 57 64 120 29 27 -15 55 -27 63 -27 37
0 25 191 -21 335 -64 200 -28 293 75 193 77 -76 141 -199 177 -342 44 -179
122 -364 163 -386 33 -17 46 14 50 118 4 120 -29 343 -64 435 -11 26 13 22 92
-18 142 -71 252 -214 424 -550 121 -238 199 -375 214 -375 47 0 46 98 -2 297
-20 84 -34 156 -30 159 20 20 160 -170 217 -293 61 -132 158 -215 289 -249 83
-21 144 -12 183 26 58 59 26 139 -105 260 -256 237 -443 443 -639 704 -255
341 -449 656 -881 1431 -172 309 -197 339 -412 500 -229 172 -297 256 -325
400 -17 88 -10 235 12 248 29 19 52 2 307 -228 137 -123 229 -160 271 -108 17
21 17 21 34 -40 52 -186 237 -477 305 -477 39 0 46 40 27 175 -21 155 -21 204
1 212 26 10 86 -63 204 -248 172 -270 233 -338 266 -293 21 29 15 73 -22 168
-97 247 -159 486 -124 474 21 -7 79 -88 153 -211 91 -152 202 -247 290 -247
49 0 68 31 74 124 8 121 -36 327 -109 516 -28 74 -36 84 -107 143 -109 91
-271 209 -537 392 -397 273 -532 382 -715 572 -132 137 -218 254 -309 421 -84
155 -161 271 -318 482 -299 401 -391 587 -414 830 -5 58 -20 157 -32 220 -29
153 -29 259 -1 297 12 15 31 29 43 31 49 7 145 -74 241 -203 29 -39 41 -69 54
-134 56 -275 183 -430 379 -463 77 -14 188 6 283 51 62 29 64 31 64 67 0 52
-24 138 -85 304 -85 230 -91 273 -40 286 28 7 143 -43 217 -94 71 -48 209
-119 276 -142 102 -34 129 -9 90 81 -50 119 -241 336 -393 448 -311 231 -516
501 -895 1180 -84 151 -193 336 -242 410 -252 384 -421 843 -543 1472 -51 266
-123 725 -135 859 -18 205 -51 328 -83 317 -58 -19 -137 -379 -157 -713 -43
-712 -158 -1262 -366 -1749 -193 -448 -490 -847 -769 -1029 -214 -141 -390
-309 -721 -691 -105 -121 -200 -227 -210 -236 -10 -8 -41 -24 -69 -34 -27 -10
-80 -33 -117 -51 -293 -147 -71 -226 292 -104 51 17 95 29 97 26 3 -2 -20 -71
-50 -153 -109 -293 -113 -364 -15 -297 57 40 199 200 282 317 72 102 128 157
159 157 21 0 37 -37 37 -87 0 -56 -29 -237 -61 -378 -16 -71 -29 -136 -29
-143 0 -19 65 -6 117 24 88 51 144 142 248 408 78 202 117 277 162 316 52 46
63 41 63 -32 0 -128 46 -252 117 -319 85 -81 193 -109 424 -109 l149 0 -11
-27 c-44 -118 -146 -286 -259 -428 -36 -44 -195 -213 -355 -375 -160 -162
-316 -326 -346 -363 -123 -156 -285 -265 -704 -472 -174 -86 -357 -185 -417
-224 -124 -82 -253 -206 -320 -306 -25 -38 -58 -81 -73 -95 -80 -74 -180 -258
-215 -396 -26 -101 -26 -148 1 -175 36 -36 86 -6 228 140 110 112 120 108 66
-31 -88 -227 -115 -311 -115 -353 0 -42 2 -45 27 -45 16 0 51 16 80 36 41 28
61 52 93 111 75 140 195 270 314 341 197 119 244 13 118 -264 -59 -129 -92
-231 -92 -285 0 -35 3 -39 24 -39 83 0 383 370 431 530 17 57 133 190 166 190
45 0 47 -61 8 -322 -21 -139 -22 -203 -4 -203 5 0 35 38 67 85 68 102 119 149
213 196 90 44 182 55 251 29 121 -46 110 -177 -29 -346 -49 -59 -55 -72 -62
-127 -16 -141 -88 -285 -196 -392 -109 -110 -248 -191 -605 -355 -253 -117
-372 -186 -464 -270 -167 -151 -256 -182 -570 -195 -118 -5 -249 -11 -290 -13
l-75 -4 -163 161 c-504 496 -928 1060 -1277 1696 -32 58 -78 137 -103 175
-175 273 -480 562 -778 737 -57 34 -108 66 -113 72 -5 6 -25 52 -44 101 -164
413 -42 567 207 264 35 -43 76 -97 91 -121 l28 -45 66 23 c78 28 159 31 207 8
57 -27 119 -108 215 -278 153 -270 211 -346 263 -346 46 0 73 65 96 230 13 97
32 150 54 150 25 0 85 -80 143 -194 69 -137 132 -232 202 -309 83 -89 136
-109 167 -62 23 36 14 166 -19 260 -25 72 -96 221 -127 265 -16 23 -50 121
-63 178 -10 45 18 15 125 -134 115 -160 252 -315 301 -341 48 -24 157 -53 204
-53 53 0 91 31 99 81 8 46 -22 163 -76 305 -24 60 -62 164 -85 232 l-42 123
-94 85 c-238 217 -605 458 -1047 690 -145 75 -307 201 -491 379 -292 283 -418
441 -993 1241 -87 121 -208 285 -271 365 l-113 146 -2 94 c0 52 -17 202 -36
334 -51 339 -47 406 20 413 23 2 43 -6 77 -32 25 -19 65 -45 89 -57 65 -33
148 -125 195 -215 22 -43 67 -144 98 -224 86 -219 139 -295 247 -352 39 -21
57 -23 173 -23 182 0 294 32 372 108 98 94 78 257 -53 423 -86 109 -120 220
-78 251 40 30 133 -3 444 -156 197 -97 334 -151 385 -151 l25 0 -21 51 c-69
177 -233 345 -654 670 -459 354 -708 666 -1270 1594 -196 322 -344 560 -418
667 -35 53 -137 296 -191 459 -93 280 -157 564 -262 1169 -67 385 -121 668
-153 800 -14 58 -20 70 -26 55z m1104 -10499 c6 -23 24 -132 41 -242 31 -204
52 -298 71 -309 29 -19 46 25 125 324 48 187 69 240 86 223 5 -5 23 -74 40
-153 16 -79 45 -191 64 -247 40 -121 128 -298 155 -312 47 -26 61 56 78 470 6
124 14 238 18 254 11 36 19 28 77 -90 78 -158 131 -327 231 -749 20 -82 51
-202 69 -265 19 -63 44 -155 55 -203 25 -105 63 -189 98 -217 89 -70 195 53
226 262 l11 78 43 -83 c23 -45 55 -93 70 -106 25 -22 27 -22 40 -5 38 52 -3
430 -70 647 l-15 47 34 0 c118 0 208 -125 324 -450 55 -157 157 -370 203 -425
83 -101 108 29 61 315 -9 52 -27 135 -39 185 -27 103 -25 108 47 102 68 -6
146 -56 258 -167 146 -143 286 -342 346 -490 41 -101 114 -238 155 -289 43
-55 91 -80 114 -61 61 51 30 239 -69 426 -25 46 -42 84 -39 84 3 0 22 -12 42
-27 227 -169 348 -330 359 -476 8 -116 -38 -200 -161 -291 -40 -30 -87 -70
-104 -89 -100 -113 -203 -399 -203 -560 0 -82 11 -107 48 -107 37 0 165 133
211 219 41 77 93 137 126 145 16 4 48 -3 88 -19 73 -29 97 -31 136 -11 39 21
73 68 130 185 74 150 161 254 189 226 13 -12 3 -103 -29 -282 -31 -173 -45
-380 -26 -399 14 -14 60 42 99 121 21 44 66 166 99 270 84 264 109 332 124
345 40 33 55 -36 56 -265 1 -207 6 -248 30 -253 29 -5 71 107 134 353 31 119
46 164 51 150 56 -153 105 -229 168 -262 78 -41 117 27 126 222 5 127 6 132
47 216 51 104 96 149 150 149 77 0 169 -134 259 -379 l39 -104 12 64 c36 177
123 374 204 463 86 95 158 117 247 76 50 -23 53 -40 20 -127 -31 -83 -68 -142
-181 -288 -199 -256 -251 -366 -251 -526 l0 -86 -206 -103 c-532 -264 -1028
-551 -1442 -832 l-147 -100 -38 23 c-64 38 -131 88 -286 212 -81 65 -162 127
-181 138 -18 11 -179 69 -357 128 -369 124 -487 169 -643 248 -337 168 -554
390 -656 670 -28 79 -20 93 52 93 69 0 195 -44 400 -141 346 -163 502 -228
514 -216 6 6 -207 188 -341 292 -60 47 -213 160 -340 252 -637 462 -871 657
-1101 918 -38 44 -95 106 -126 137 -152 155 -240 339 -284 593 -21 123 -31
509 -14 530 18 22 35 4 49 -49z m2576 -3946 c22 -16 79 -61 126 -102 47 -40
107 -88 133 -106 51 -35 86 -95 86 -147 -1 -75 -62 -178 -234 -390 -99 -122
-186 -262 -186 -300 0 -9 -10 -31 -23 -48 -13 -18 -39 -67 -57 -110 -18 -43
-38 -80 -43 -84 -17 -10 -34 25 -41 85 -20 165 -65 249 -239 441 -72 81 -123
161 -147 232 -19 54 -21 77 -16 144 4 44 10 127 14 185 8 115 13 130 44 130
39 0 85 -40 268 -231 101 -104 196 -197 211 -205 45 -23 78 -18 90 14 13 34 7
77 -37 256 -50 202 -56 234 -43 257 12 24 36 19 94 -21z m1523 -462 c17 -17
15 -37 -3 -45 -18 -6 -55 23 -55 44 0 16 42 17 58 1z m-723 -232 c39 -39 48
-95 42 -251 -4 -77 -13 -194 -22 -260 -38 -297 -9 -334 115 -148 53 79 85 166
129 353 35 143 62 226 87 265 24 37 69 58 110 51 35 -7 130 -73 177 -123 l27
-29 -101 -150 c-139 -204 -283 -393 -370 -488 -77 -83 -211 -196 -233 -196
-19 0 -265 125 -293 150 -35 30 -63 97 -63 151 0 119 78 310 211 514 89 138
127 185 145 185 8 0 26 -11 39 -24z m-535 -331 c88 -45 74 -273 -22 -362 -41
-38 -116 -65 -199 -70 -119 -9 -136 16 -73 108 20 30 56 92 80 139 49 96 93
153 138 181 37 23 39 23 76 4z m2745 -965 c77 -26 151 -82 190 -144 28 -46 30
-57 30 -140 0 -80 -3 -98 -29 -150 -37 -75 -140 -179 -227 -229 l-66 -38 -7
-57 c-23 -195 -111 -402 -298 -705 -67 -107 -88 -134 -131 -162 -88 -58 -145
-59 -167 -4 -15 36 -15 167 0 279 12 96 13 226 1 249 -12 22 9 132 44 237 40
115 126 291 257 524 64 113 132 239 153 280 20 41 41 80 46 86 12 14 126 0
204 -26z m-1014 -556 c20 -22 24 -38 28 -105 2 -53 0 -79 -8 -79 -17 0 -90 70
-107 101 -19 38 -18 65 6 89 27 27 52 25 81 -6z m-720 -1131 c40 -24 106 -110
184 -240 36 -59 85 -129 110 -155 92 -98 135 -204 136 -333 1 -159 -52 -285
-166 -401 -71 -72 -191 -144 -240 -144 -29 0 -96 92 -261 357 -105 168 -143
220 -206 281 -46 45 -90 99 -109 136 -29 54 -34 72 -37 156 -5 111 17 185 69
238 56 57 104 55 145 -7 38 -58 53 -129 64 -295 12 -171 28 -249 69 -338 41
-91 85 -145 136 -170 35 -17 51 -20 72 -12 36 12 69 77 79 152 10 78 -11 241
-42 337 -62 192 -90 386 -64 436 13 23 24 24 61 2z m-2545 -394 c175 -59 347
-147 420 -213 105 -95 120 -165 60 -285 -76 -149 -98 -279 -56 -321 22 -22 64
-26 105 -10 72 27 185 173 216 278 7 23 15 42 20 42 12 0 55 -120 77 -215 11
-49 33 -157 47 -240 45 -247 92 -371 179 -470 l42 -48 39 19 c96 48 106 124
50 415 -50 259 -50 386 1 454 15 19 18 18 75 -44 84 -91 178 -232 334 -507 76
-131 168 -286 206 -343 l69 -104 -46 -86 c-71 -132 -180 -293 -380 -562 -371
-500 -510 -750 -521 -944 -4 -69 -1 -85 16 -113 49 -77 121 -66 219 34 49 50
75 88 112 167 31 64 50 116 50 138 0 152 173 394 340 478 74 36 93 38 120 11
53 -53 0 -191 -220 -575 -115 -201 -149 -268 -191 -372 -37 -94 -50 -207 -26
-238 14 -18 17 -17 86 38 142 115 241 252 436 602 148 267 230 389 325 488 67
71 185 167 205 167 13 0 -4 -128 -30 -230 -13 -52 -47 -167 -75 -255 -98 -306
-127 -451 -117 -589 10 -143 9 -144 141 125 75 152 127 244 136 244 24 0 32
-72 27 -256 l-6 -177 29 -27 c41 -39 78 -32 107 20 29 54 48 153 73 384 26
244 34 284 65 337 45 77 98 96 133 47 36 -52 57 -136 103 -417 26 -161 60
-296 75 -296 2 0 24 40 48 88 52 103 105 270 140 437 97 472 129 590 167 631
88 94 163 -80 203 -469 27 -263 30 -358 13 -418 -28 -98 -46 -212 -67 -440
-43 -461 -78 -570 -231 -735 -127 -136 -164 -216 -265 -572 -84 -298 -142
-422 -240 -517 -65 -62 -105 -79 -149 -65 -40 13 -84 60 -113 121 -56 120
-127 292 -187 454 -114 305 -184 436 -289 539 -92 90 -228 133 -366 115 -40
-5 -86 -4 -121 2 -31 6 -96 9 -145 7 -74 -3 -100 -8 -154 -34 -36 -17 -86 -50
-111 -72 -53 -47 -132 -158 -179 -252 -59 -116 -201 -463 -220 -537 -33 -125
-94 -223 -162 -259 -39 -20 -112 -17 -160 7 -123 63 -211 230 -233 444 -21
200 -126 451 -242 575 -119 129 -269 175 -438 136 -170 -40 -681 -46 -965 -11
-152 18 -187 34 -240 107 -71 98 -90 229 -91 648 0 168 -5 328 -10 355 -5 28
-14 122 -19 210 -5 88 -20 252 -35 365 -14 113 -29 270 -31 350 -5 127 -3 149
13 180 13 25 26 36 48 40 26 4 32 12 47 57 31 93 41 225 29 379 -30 388 -31
422 -22 509 10 88 46 215 60 215 5 0 25 -37 46 -82 91 -201 151 -390 239 -763
32 -132 75 -305 96 -385 21 -80 58 -221 80 -315 41 -166 80 -285 101 -312 41
-48 36 75 -17 437 -39 270 -55 531 -35 568 6 12 18 22 25 22 23 0 80 -72 135
-171 29 -52 72 -114 96 -139 196 -207 299 -433 355 -780 11 -69 33 -260 50
-425 32 -318 58 -497 91 -617 27 -99 70 -218 79 -218 17 0 35 214 34 410 -1
195 -8 291 -54 725 -11 105 -22 267 -25 360 l-5 170 79 -235 c123 -364 357
-1204 384 -1376 34 -215 115 -344 219 -344 51 0 92 37 118 108 23 61 28 136
20 354 -3 74 0 112 8 120 15 15 23 -6 67 -182 84 -335 172 -516 267 -549 l31
-11 -7 83 c-9 113 -42 323 -77 502 -51 255 -111 485 -303 1169 -42 148 -76
281 -76 295 0 58 -44 190 -130 392 -106 248 -130 326 -130 429 0 87 27 155 79
204 l31 30 0 276 c0 309 -10 445 -45 601 -44 198 -122 352 -243 481 -35 37
-62 68 -59 68 2 0 58 -18 123 -41z m6208 -1546 c86 -173 145 -377 231 -803 60
-294 93 -440 130 -560 12 -41 28 -96 35 -122 7 -27 17 -48 23 -48 12 0 7 83
-29 527 -14 172 -24 330 -22 352 l3 39 85 -132 c210 -327 306 -503 359 -663
51 -152 63 -225 67 -408 4 -217 7 -243 50 -449 59 -286 56 -402 -10 -488 -29
-38 -84 -86 -131 -113 -14 -9 -19 -30 -25 -100 -7 -88 -5 -152 21 -522 19
-276 -3 -419 -84 -540 -18 -27 -41 -49 -52 -51 -31 -4 -172 94 -261 183 -44
44 -136 150 -205 235 -68 85 -140 173 -161 196 l-37 40 -11 175 c-6 96 -19
305 -30 464 -60 879 -71 1056 -84 1325 -8 162 -16 356 -18 430 -3 126 -2 135
15 132 32 -5 66 25 78 70 12 46 8 279 -10 541 -10 144 -2 282 20 330 7 15 14
27 15 27 2 0 19 -30 38 -67z m-13407 -398 l41 -17 -14 -49 c-45 -151 -117
-279 -349 -624 -89 -132 -181 -275 -204 -317 -24 -43 -45 -78 -48 -78 -2 0
-37 28 -77 63 -76 65 -126 128 -126 159 0 32 36 91 85 138 60 58 121 157 186
300 137 306 209 406 315 440 41 13 141 5 191 -15z m-1842 -709 c409 -67 698
-200 950 -438 309 -292 504 -677 587 -1158 19 -105 22 -163 22 -360 -1 -219
-3 -247 -33 -415 -66 -373 -135 -552 -306 -789 -269 -375 -734 -666 -1245
-780 -220 -49 -340 -59 -595 -51 -126 5 -336 7 -465 6 -336 -3 -452 22 -552
123 -72 72 -94 125 -107 256 -29 304 -34 611 -23 1588 9 844 8 998 -5 1155
-39 477 17 698 212 833 l57 39 332 6 c574 10 1057 4 1171 -15z m16329 -461
c14 -60 30 -148 35 -195 7 -53 29 -137 62 -230 138 -396 151 -441 157 -535 4
-79 2 -96 -17 -133 -34 -67 -129 -106 -194 -78 -68 28 -72 46 -73 351 -1 169
-9 371 -22 540 -22 285 -26 422 -15 451 11 28 37 -41 67 -171z m-12124 -690
c9 -19 16 -71 18 -137 5 -125 -14 -226 -56 -303 -22 -42 -32 -51 -58 -53 -55
-5 -80 45 -54 113 5 14 17 74 25 133 36 244 81 334 125 247z m12719 -278 c19
-38 24 -68 28 -155 4 -101 3 -106 -13 -87 -59 71 -105 243 -74 280 19 23 32
14 59 -38z m-4209 8 c16 -20 7 -120 -16 -172 -16 -37 -17 -38 -24 -13 -12 38
-11 159 0 181 13 23 23 24 40 4z m-5228 -336 c119 -25 190 -88 222 -196 6 -19
0 -26 -41 -46 -131 -66 -210 -77 -608 -87 -297 -7 -350 -11 -420 -29 -150 -40
-243 -102 -310 -206 -74 -115 -52 -123 85 -31 116 77 134 83 166 51 22 -22 24
-32 24 -115 0 -50 -5 -123 -11 -161 -13 -86 -5 -99 81 -123 68 -19 300 -35
510 -36 80 0 184 -5 230 -10 77 -9 88 -13 113 -43 37 -42 67 -100 67 -130 0
-58 -74 -109 -193 -133 -99 -19 -578 -39 -652 -27 -33 6 -75 7 -103 2 -153
-28 -349 -203 -377 -336 -9 -44 28 -83 78 -83 35 0 35 0 42 58 10 79 32 142
63 175 32 34 52 34 93 0 104 -88 94 -288 -18 -366 l-44 -31 35 -18 c121 -62
365 -95 621 -83 239 10 529 -24 571 -67 24 -26 54 -93 54 -124 0 -65 -57 -107
-173 -129 -113 -21 -1486 -13 -1612 9 -103 19 -167 37 -242 67 l-52 21 -3 986
c-2 543 1 1006 5 1030 19 96 112 172 243 199 71 15 125 15 554 5 390 -10 496
-9 590 2 146 17 343 19 412 5z m6883 -29 c212 -66 410 -228 656 -541 231 -294
278 -351 364 -450 167 -191 214 -233 306 -277 146 -71 283 -81 386 -28 134 67
170 209 159 621 -9 327 8 439 79 523 46 53 109 77 197 76 59 0 73 -4 110 -31
87 -63 140 -172 159 -326 12 -97 7 -196 -26 -502 -11 -106 -14 -252 -13 -595
1 -460 -2 -521 -37 -603 -27 -65 -73 -114 -130 -143 -50 -24 -74 -28 -198 -35
-258 -15 -377 13 -553 132 -118 78 -258 226 -476 499 -129 163 -233 282 -310
356 -64 61 -123 125 -132 142 -28 54 -131 155 -197 195 -96 57 -184 80 -277
75 -89 -5 -138 -27 -194 -85 -88 -91 -108 -215 -90 -581 15 -323 2 -437 -59
-532 -50 -79 -115 -110 -232 -110 -54 0 -75 5 -105 24 -54 35 -88 74 -116 136
-52 115 -57 245 -20 559 14 122 15 178 3 536 -17 490 -16 628 5 720 29 121 97
208 193 246 42 17 307 35 398 27 44 -4 112 -17 150 -28z m-3576 -21 c128 -29
251 -132 334 -279 26 -47 88 -187 137 -312 137 -349 200 -461 315 -566 l57
-52 76 0 c130 0 224 35 303 112 97 94 151 200 254 498 105 307 217 509 305
555 42 22 174 20 225 -4 78 -36 105 -85 105 -190 0 -138 -61 -303 -255 -696
-109 -219 -135 -283 -215 -520 -138 -412 -229 -576 -375 -680 -94 -68 -188
-99 -295 -99 -124 1 -169 23 -266 132 -127 142 -175 229 -279 507 -156 414
-242 543 -421 627 -97 46 -181 46 -277 1 -179 -85 -262 -205 -422 -608 -48
-121 -99 -242 -113 -270 -74 -148 -176 -271 -281 -341 -43 -28 -49 -29 -160
-29 -137 1 -193 18 -283 90 -117 92 -206 253 -328 590 -39 110 -94 247 -122
305 -27 58 -60 139 -74 180 -13 41 -79 185 -147 320 -135 268 -167 351 -174
452 -8 98 10 152 70 212 l48 48 102 -4 c130 -4 190 -31 271 -119 75 -80 119
-176 209 -450 89 -268 138 -369 222 -454 83 -85 139 -110 235 -109 117 2 179
31 271 123 91 91 133 169 254 467 45 112 102 238 126 280 83 146 210 256 325
283 53 12 190 13 243 0z"/>
<path d="M3083 5420 c-264 -37 -432 -147 -528 -343 -88 -182 -108 -329 -106
-782 1 -204 -3 -372 -10 -420 -16 -114 -14 -362 5 -480 40 -262 138 -481 276
-616 123 -120 265 -179 450 -186 482 -20 979 293 1218 767 53 106 126 328 147
445 19 113 19 306 -1 426 -20 122 -82 308 -139 418 -205 398 -549 672 -947
756 -89 19 -280 27 -365 15z m267 -245 c393 -64 734 -312 895 -650 66 -141
105 -331 105 -520 0 -328 -118 -618 -348 -857 -150 -156 -331 -260 -535 -308
-89 -21 -327 -40 -494 -40 -104 0 -233 16 -233 29 0 3 -7 44 -15 91 -29 162
-34 350 -24 820 13 550 13 563 -7 768 -20 198 -15 414 10 483 22 61 76 122
129 148 98 48 339 64 517 36z"/>
<path d="M24099 4380 c-47 -5 -125 -16 -174 -25 -85 -16 -256 -66 -282 -83 -9
-6 -1 -26 31 -72 74 -110 195 -238 423 -447 278 -255 369 -351 460 -488 55
-82 105 -183 101 -205 -7 -43 -206 -260 -566 -617 -212 -211 -388 -383 -392
-383 -3 0 -11 26 -18 59 -43 207 -210 260 -681 215 -112 -11 -208 -14 -296
-10 -353 17 -432 18 -490 7 -67 -13 -84 -23 -66 -44 39 -48 472 -91 558 -55
50 21 238 15 326 -10 160 -45 277 -128 277 -195 0 -41 -35 -77 -104 -108 -49
-21 -53 -21 -795 -23 -683 -1 -755 1 -856 17 -118 20 -285 61 -316 78 -18 9
-19 40 -19 993 0 1078 -2 1043 60 1118 17 21 58 50 93 67 108 53 160 56 652
42 397 -11 456 -11 600 4 191 20 386 16 456 -9 26 -10 64 -32 86 -50 43 -37
89 -125 79 -151 -8 -22 -115 -69 -206 -90 -60 -15 -143 -19 -425 -25 -311 -6
-359 -10 -428 -28 -156 -42 -266 -121 -311 -222 -44 -98 -33 -102 64 -25 119
95 184 135 265 163 87 30 171 27 237 -9 39 -22 49 -23 108 -15 46 6 137 4 311
-9 411 -30 543 -13 650 83 71 64 99 126 99 221 0 96 -15 142 -63 197 -46 52
-110 87 -204 112 -59 15 -105 16 -348 13 -331 -5 -639 -5 -1170 0 -348 4 -401
2 -490 -14 -94 -18 -265 -67 -292 -85 -30 -19 -38 -320 -38 -1400 l0 -1062 30
-10 c247 -77 604 -104 1100 -80 332 16 1928 16 1996 1 66 -15 197 -13 264 4
192 50 314 150 594 484 83 100 184 213 223 252 l71 72 67 -6 c82 -7 138 -28
216 -83 73 -51 126 -111 264 -299 124 -169 242 -289 326 -333 177 -92 640
-145 859 -98 89 20 242 86 251 110 14 38 -166 247 -438 507 -123 117 -287 276
-365 354 -78 77 -166 163 -195 190 -147 137 -126 299 68 521 64 73 316 305
399 367 34 25 97 83 141 129 129 135 195 250 198 345 3 117 -96 164 -300 142
-73 -7 -118 -7 -160 0 -90 17 -221 13 -306 -8 -91 -24 -212 -83 -294 -144 -84
-63 -247 -236 -319 -337 -110 -154 -184 -210 -281 -210 -109 0 -222 92 -399
325 -166 218 -188 241 -273 281 -99 47 -231 80 -373 93 -124 12 -142 12 -270
1z m403 -200 c88 -27 175 -91 358 -264 186 -176 289 -257 390 -305 72 -35 79
-36 185 -36 105 0 113 1 179 35 45 22 86 53 120 90 274 297 516 460 683 460
92 0 152 -43 186 -136 37 -97 55 -70 -227 -348 -260 -256 -315 -323 -355 -430
-41 -111 -33 -214 24 -309 88 -144 113 -179 173 -240 37 -38 131 -124 208
-193 171 -149 224 -208 269 -298 29 -57 35 -80 35 -132 0 -34 -4 -74 -9 -87
-23 -60 -249 -84 -361 -38 -102 42 -191 111 -335 261 -357 370 -427 422 -600
450 -83 13 -155 1 -244 -40 -93 -44 -181 -120 -328 -282 -286 -315 -406 -397
-583 -398 -41 0 -85 3 -98 6 -37 10 -75 86 -75 149 0 109 68 196 362 465 63
58 134 132 158 165 24 33 66 84 93 113 141 150 141 314 -1 524 -60 88 -272
302 -345 349 -183 116 -243 289 -142 405 70 80 162 101 280 64z"/>
<path d="M7138 3900 c-277 -44 -451 -165 -451 -315 0 -154 187 -324 406 -369
83 -18 369 -6 457 18 107 30 200 85 284 167 l79 77 -7 47 c-23 169 -160 298
-381 356 -91 23 -294 34 -387 19z m392 -139 c119 -37 190 -78 220 -126 73
-118 -64 -279 -286 -335 -91 -24 -148 -25 -229 -5 -33 8 -110 14 -172 15
l-113 0 -41 53 c-104 130 -106 233 -7 323 91 82 206 115 388 111 120 -3 146
-6 240 -36z"/>
<path d="M22795 3363 c-114 -9 -213 -12 -300 -7 -223 13 -363 4 -372 -23 -13
-38 386 -101 696 -109 172 -4 175 -5 233 -36 68 -36 98 -69 98 -109 0 -88
-196 -180 -416 -195 -76 -6 -108 -3 -190 16 -91 22 -106 22 -190 12 -105 -13
-232 -51 -319 -94 -204 -102 -268 -230 -166 -332 l41 -41 0 51 c0 79 27 154
70 195 64 61 73 62 585 50 472 -11 599 -6 719 24 137 35 230 108 256 200 17
60 8 192 -17 242 -23 47 -104 105 -187 132 -129 43 -249 49 -541 24z"/>
</g>
</svg>
